<svg xmlns="http://www.w3.org/2000/svg" viewBox="0 0 64 64" role="img" aria-hidden="true">
  <circle cx="32" cy="32" r="30" fill="#25D366"/>
  <path fill="#fff" d="M21 49l2.2-8A17.8 17.8 0 1 1 32 49c-2.8 0-5.6-.7-8-2l-3 .9zm8.4-5.4c1.7 1 3.3 1.6 5.5 1.6A13.9 13.9 0 1 0 21 31.3c0 2 .5 4 1.6 5.7l.4.6-1.3 4.7 4.8-1.2.5.3zm11-8.3c-.6-.3-3.2-1.6-3.7-1.8-.5-.2-.9-.3-1.3.3-.4.6-1.5 1.8-1.8 2.1-.4.4-.7.4-1.3.1-.6-.3-2.4-.9-4.5-2.8-1.7-1.5-2.8-3.2-3.1-3.8-.3-.6 0-.9.2-1.2l1-1.1c.3-.3.4-.6.6-1 .2-.3 0-.7 0-1-.2-.3-1.3-3-1.8-4.1-.5-1-1-1-1.3-1h-1.2c-.4 0-1 .2-1.5.8s-2 2-2 4.8c0 2.8 2 5.5 2.4 5.9.3.4 4 6.2 9.8 8.4 5.7 2.2 5.7 1.5 6.8 1.4 1-.1 3.2-1.3 3.7-2.6.5-1.3.5-2.4.3-2.6-.2-.2-.6-.3-1.2-.6z"/>
</svg>
